<?xml version="1.0" standalone="no"?>
<!DOCTYPE svg PUBLIC "-//W3C//DTD SVG 20010904//EN"
 "http://www.w3.org/TR/2001/REC-SVG-20010904/DTD/svg10.dtd">
<svg version="1.0" xmlns="http://www.w3.org/2000/svg"
 width="488.000000pt" height="488.000000pt" viewBox="0 0 488.000000 488.000000"
 preserveAspectRatio="xMidYMid meet">
<metadata>
Created by potrace 1.14, written by Peter Selinger 2001-2017
</metadata>
<g transform="translate(0.000000,488.000000) scale(0.100000,-0.100000)"
fill="#000000" stroke="none">
<path d="M2258 4855 c-2 -1 -30 -5 -63 -9 -80 -8 -135 -15 -165 -21 -14 -3
-38 -8 -55 -11 -565 -99 -1125 -452 -1490 -939 -233 -310 -411 -744 -451
-1096 -3 -30 -8 -65 -11 -79 -3 -14 -6 -113 -8 -220 -4 -238 12 -391 61 -596
201 -845 849 -1525 1682 -1765 59 -17 118 -33 132 -35 14 -3 33 -7 42 -10 20
-6 36 -9 130 -24 202 -31 573 -35 728 -6 14 3 42 7 62 10 209 31 503 128 702
231 345 179 644 436 873 750 176 242 323 563 387 846 21 91 23 106 52 284 13
81 11 459 -3 560 -104 781 -525 1414 -1203 1812 -274 160 -595 265 -950 310
-40 5 -447 13 -452 8z"/>
</g>
</svg>
